<svg xmlns="http://www.w3.org/2000/svg" viewBox="0 0 360 72" fill="none">
  <rect x="0" y="0" width="72" height="72" rx="22" fill="#565E74"/>
  <rect x="18" y="18" width="24" height="7" rx="3.5" fill="#F7F9FB"/>
  <rect x="18" y="32.5" width="35" height="7" rx="3.5" fill="#F7F9FB"/>
  <rect x="18" y="47" width="18" height="7" rx="3.5" fill="#F7F9FB"/>
  <circle cx="51.5" cy="21.5" r="5.5" fill="#DAE2FD"/>
  <path d="M106 23h15.4V51H106V23Zm28.2 9.4c2.2-3.1 5.9-4.9 10.7-4.9 7.5 0 12.2 5 12.2 13.1V51h-15.3V42c0-2.7-1.4-4.2-3.8-4.2-2.5 0-4 1.6-4 4.2V51h-15.3V28.4h15.5v4Zm44.5 19.5c-6.9 0-12.8-2.1-17.3-6.4l8.2-8.1c2.4 2.1 5.3 3.2 8.5 3.2 2 0 3.1-.5 3.1-1.5 0-.9-.8-1.4-3.5-1.8l-4.1-.6c-7.1-1-11.2-4.6-11.2-10.3 0-6.8 5.9-11.4 15.3-11.4 6 0 11.5 1.8 15.8 5.2l-7.6 8c-2.4-1.7-4.9-2.5-7.4-2.5-1.7 0-2.7.5-2.7 1.4 0 .9.9 1.3 3.8 1.7l3.9.6c7.3 1 11.3 4.4 11.3 10.1 0 7.2-6.1 11.4-16.1 11.4Zm30.4-37.1c-5.2 0-8.8-3.1-8.8-7.6s3.6-7.6 8.8-7.6c5.2 0 8.8 3.1 8.8 7.6s-3.6 7.6-8.8 7.6ZM246.5 51V28.4h15.3V51h-15.3Zm35.4.9c-12.6 0-21.1-8.8-21.1-21s8.5-21 21.1-21c8.1 0 15.1 3.7 18.7 9.9l-12.9 6.4c-1.1-2.2-3-3.4-5.3-3.4-3.8 0-6.2 3-6.2 8.1 0 5.1 2.4 8.1 6.2 8.1 2.5 0 4.3-1.2 5.5-3.6l13.1 6.2c-3.7 6.4-10.8 10.3-19.1 10.3Z" fill="#2A3439"/>
</svg>
